<?xml version="1.0" encoding="UTF-8" standalone="no"?>
<!-- Created with Inkscape (http://www.inkscape.org/) -->

<svg
   width="515.00751"
   height="469.71225"
   viewBox="0 0 136.2624 124.27804"
   version="1.1"
   id="svg5"
   inkscape:version="1.2 (dc2aedaf03, 2022-05-15)"
   sodipodi:docname="LogoConfig.svg"
   inkscape:export-filename="LogoConfig.png"
   inkscape:export-xdpi="93.49"
   inkscape:export-ydpi="93.49"
   xmlns:inkscape="http://www.inkscape.org/namespaces/inkscape"
   xmlns:sodipodi="http://sodipodi.sourceforge.net/DTD/sodipodi-0.dtd"
   xmlns:xlink="http://www.w3.org/1999/xlink"
   xmlns="http://www.w3.org/2000/svg"
   xmlns:svg="http://www.w3.org/2000/svg">
  <sodipodi:namedview
     id="namedview7"
     pagecolor="#ffffff"
     bordercolor="#666666"
     borderopacity="1.0"
     inkscape:showpageshadow="2"
     inkscape:pageopacity="0.0"
     inkscape:pagecheckerboard="0"
     inkscape:deskcolor="#d1d1d1"
     inkscape:document-units="px"
     showgrid="false"
     inkscape:zoom="0.7616793"
     inkscape:cx="241.57149"
     inkscape:cy="298.02569"
     inkscape:window-width="1920"
     inkscape:window-height="1009"
     inkscape:window-x="1912"
     inkscape:window-y="-8"
     inkscape:window-maximized="1"
     inkscape:current-layer="layer1" />
  <defs
     id="defs2">
    <linearGradient
       inkscape:collect="always"
       id="linearGradient1647">
      <stop
         style="stop-color:#000000;stop-opacity:1;"
         offset="0"
         id="stop1643" />
      <stop
         style="stop-color:#ffffff;stop-opacity:0;"
         offset="1"
         id="stop1645" />
    </linearGradient>
    <linearGradient
       inkscape:collect="always"
       xlink:href="#linearGradient1647"
       id="linearGradient1649"
       x1="112.84424"
       y1="102.85749"
       x2="22.875816"
       y2="24.699585"
       gradientUnits="userSpaceOnUse" />
  </defs>
  <g
     inkscape:label="Layer 1"
     inkscape:groupmode="layer"
     id="layer1"
     transform="translate(0.39786866,-5.5943208)">
    <path
       id="path355"
       style="fill:#233491;fill-opacity:1;stroke-width:0.674581;stroke-linecap:square;paint-order:fill markers stroke;stroke:url(#linearGradient1649)"
       d="M 95.628495,5.5943208 C 90.377771,10.11142 84.345176,16.804517 78.93848,21.922719 A 47.17807,47.17807 0 0 0 67.733334,20.569455 47.17807,47.17807 0 0 0 56.543519,21.937592 C 51.143475,16.827635 45.118168,10.143764 39.869781,5.6226737 a 68.131214,68.131214 0 0 0 -12.00693,6.9322483 c 1.291233,6.805753 4.067333,15.365985 5.792559,22.597145 A 47.17807,47.17807 0 0 0 22.466066,54.5328 C 15.341025,56.654323 6.5395848,58.530379 -3.6573282e-6,60.815027 A 68.131214,68.131214 0 0 0 -0.39786866,67.747509 68.131214,68.131214 0 0 0 -3.6573282e-6,74.679759 C 6.5395848,76.964339 15.341025,78.84046 22.466066,80.961979 A 47.17807,47.17807 0 0 0 33.65541,100.34295 c -1.725201,7.23107 -4.501075,15.79126 -5.792324,22.59691 a 68.131214,68.131214 0 0 0 12.007386,6.93249 c 5.248246,-4.52113 11.273569,-11.2053 16.673282,-16.31493 a 47.17807,47.17807 0 0 0 11.18958,1.36814 47.17807,47.17807 0 0 0 11.189345,-1.36814 c 5.399705,5.10963 11.425201,11.7938 16.673513,16.31493 a 68.131214,68.131214 0 0 0 12.007628,-6.93249 c -1.29124,-6.80574 -4.06734,-15.36597 -5.79257,-22.59714 a 47.17807,47.17807 0 0 0 11.18934,-19.380741 c 7.12505,-2.121503 15.92648,-3.997624 22.46607,-6.28222 a 68.131214,68.131214 0 0 0 0.39788,-6.93225 68.131214,68.131214 0 0 0 -0.35325,-6.91691 c -6.53661,-2.288998 -15.34975,-4.167092 -22.48652,-6.290361 A 47.17807,47.17807 0 0 0 101.8159,35.131384 c 1.72919,-7.241793 4.50951,-15.813199 5.79605,-22.619223 A 68.131214,68.131214 0 0 0 95.628495,5.5943208 Z" />
    <g
       id="g9534"
       transform="matrix(0.73724136,-0.4256465,0.4256465,0.73724136,-7.0562758,52.157202)"
       style="fill:#ffffff">
      <circle
         style="opacity:1;fill:#ffffff;fill-opacity:1;stroke:none;stroke-width:1.5;stroke-linecap:square;paint-order:fill markers stroke"
         id="path9395"
         cx="59.56572"
         cy="53.260941"
         r="5.4037843" />
      <circle
         style="opacity:1;fill:#ffffff;fill-opacity:1;stroke:none;stroke-width:1.5;stroke-linecap:square;paint-order:fill markers stroke"
         id="circle9397"
         cx="75.370979"
         cy="53.260941"
         r="5.4037843" />
      <circle
         style="opacity:1;fill:#ffffff;fill-opacity:1;stroke:none;stroke-width:1.5;stroke-linecap:square;paint-order:fill markers stroke"
         id="circle9399"
         cx="91.176247"
         cy="53.260941"
         r="5.4037843" />
      <g
         id="g9517"
         transform="matrix(1.310347,0,0,1.310347,-21.510608,-35.075899)"
         style="fill:#ffffff">
        <rect
           style="opacity:1;fill:#ffffff;fill-opacity:1;stroke:none;stroke-width:1.5;stroke-linecap:square;paint-order:fill markers stroke"
           id="rect9505"
           width="61.733711"
           height="5.5578947"
           x="34.487339"
           y="75.031578"
           ry="2.605263" />
        <rect
           style="opacity:1;fill:#ffffff;fill-opacity:1;stroke:none;stroke-width:1.5;stroke-linecap:square;paint-order:fill markers stroke"
           id="rect9509"
           width="19.158871"
           height="5.5578947"
           x="-36.975594"
           y="117.10175"
           ry="2.7789474"
           transform="rotate(-60)"
           rx="3.123944" />
      </g>
    </g>
  </g>
</svg>
